<?xml version="1.0" standalone="no"?>
<!DOCTYPE svg PUBLIC "-//W3C//DTD SVG 20010904//EN"
 "http://www.w3.org/TR/2001/REC-SVG-20010904/DTD/svg10.dtd">
<svg version="1.0" xmlns="http://www.w3.org/2000/svg"
 width="555.000000pt" height="555.000000pt" viewBox="0 0 555.000000 555.000000"
 preserveAspectRatio="xMidYMid meet">
<metadata>
Created by potrace 1.14, written by Peter Selinger 2001-2017
</metadata>
<g transform="translate(0.000000,555.000000) scale(0.100000,-0.100000)"
fill="#000000" stroke="none">
<path d="M2930 5300 c-13 -8 -12 -10 3 -10 9 0 17 5 17 10 0 12 -1 12 -20 0z"/>
<path d="M2915 5270 c-3 -5 1 -10 9 -10 9 0 16 5 16 10 0 6 -4 10 -9 10 -6 0
-13 -4 -16 -10z"/>
<path d="M2685 5245 c-11 -9 -14 -14 -7 -10 22 12 62 16 62 6 0 -5 -9 -11 -21
-14 -12 -3 -18 -10 -14 -16 8 -13 -18 -41 -38 -41 -7 0 -17 -3 -21 -7 -4 -4
-15 -8 -24 -8 -11 0 -22 -15 -30 -39 -18 -56 -26 -63 -74 -61 -56 3 -63 -2
-36 -25 22 -18 22 -19 3 -20 -27 0 -41 11 -49 37 -6 18 -13 22 -37 19 -32 -4
-36 2 -16 24 7 8 -1 6 -17 -4 -26 -16 -31 -17 -70 -3 -22 9 -50 18 -61 20 -11
3 -1 5 22 6 23 0 44 5 47 10 6 9 -86 7 -102 -3 -5 -3 -38 -6 -73 -7 -63 -1
-179 -25 -179 -38 0 -4 -17 -15 -37 -26 -64 -32 -189 -171 -266 -292 -22 -35
-23 -40 -9 -61 12 -18 12 -26 3 -35 -10 -9 -11 -8 -6 8 6 20 6 20 -9 1 -8 -10
-13 -23 -10 -28 4 -5 -3 -19 -14 -31 -11 -12 -32 -42 -48 -66 -16 -24 -32 -49
-36 -55 -4 -6 -21 -41 -38 -78 -29 -66 -29 -67 -13 -110 20 -53 27 -303 11
-393 -16 -92 -18 -109 -19 -265 -3 -179 9 -315 29 -355 9 -16 16 -39 17 -50 1
-11 5 -36 9 -55 4 -19 9 -56 11 -82 4 -51 10 -68 26 -68 6 0 8 4 5 8 -2 4 2
38 10 75 7 37 16 98 19 135 3 37 13 94 22 127 24 94 33 135 43 208 5 38 23
112 39 165 26 86 43 154 55 217 2 11 10 34 16 50 7 17 13 37 14 45 2 22 45
100 54 100 5 0 33 24 63 53 247 237 411 370 474 383 6 1 26 9 45 17 19 8 44
13 55 11 10 -1 24 0 30 4 15 10 153 6 206 -6 26 -6 73 -21 105 -33 33 -12 81
-23 108 -25 29 -2 62 -12 85 -26 20 -13 57 -32 84 -42 26 -10 47 -21 47 -24 0
-4 15 -13 33 -21 41 -19 97 -59 122 -91 25 -31 75 -86 145 -160 36 -37 56 -68
58 -85 1 -16 6 -33 12 -40 5 -6 8 -14 5 -17 -3 -3 1 -11 10 -18 8 -7 15 -17
15 -22 0 -5 13 -21 29 -36 32 -30 64 -86 54 -96 -4 -3 -1 -6 5 -6 5 0 18 -21
28 -47 10 -27 21 -52 25 -58 5 -8 64 -224 73 -270 6 -32 50 -131 75 -172 18
-29 26 -52 21 -58 -10 -12 24 -95 43 -107 16 -9 23 0 35 42 6 22 6 45 0 60
-25 65 -28 131 -8 155 6 7 12 27 12 44 1 29 18 46 18 19 0 -7 12 -21 25 -31
25 -18 25 -18 25 10 -1 15 -5 48 -10 73 -11 59 -3 68 24 31 28 -37 36 -32 26
15 -4 18 -6 34 -4 34 2 0 -5 20 -16 44 -10 24 -16 46 -14 49 3 3 -2 20 -12 39
-9 18 -19 58 -21 88 -7 99 -11 124 -26 172 -8 26 -13 49 -10 51 7 8 -35 232
-51 270 -8 20 -13 37 -11 37 6 0 -27 83 -35 90 -3 3 -27 37 -53 75 -26 39 -78
108 -116 155 -38 47 -70 89 -70 93 -1 5 -21 28 -46 53 -25 24 -45 48 -45 52 0
17 -96 110 -135 131 -87 46 -119 75 -112 101 4 14 -3 22 -25 29 -16 6 -32 20
-35 31 -7 27 -25 25 -21 -2 2 -19 -1 -23 -22 -20 -14 2 -41 4 -61 5 -24 1 -35
6 -32 14 6 16 -39 27 -83 20 -29 -5 -35 -3 -30 8 7 20 -4 19 -19 -2 -11 -15
-13 -15 -24 5 -7 13 -16 20 -20 17 -5 -3 -28 2 -52 11 -70 24 -121 28 -144 9z
m119 -26 c-3 -5 -11 -9 -19 -9 -7 0 -16 -11 -19 -25 -6 -24 -56 -85 -70 -85
-13 0 -5 27 14 48 11 12 20 29 20 39 0 21 47 53 67 46 7 -3 10 -9 7 -14z m116
-54 c0 -8 -7 -15 -15 -15 -16 0 -20 12 -8 23 11 12 23 8 23 -8z m115 -5 c3 -5
-3 -10 -15 -10 -12 0 -18 5 -15 10 3 6 10 10 15 10 5 0 12 -4 15 -10z m-381
-35 c-4 -8 -10 -15 -14 -15 -4 0 -10 7 -14 15 -4 10 1 15 14 15 13 0 18 -5 14
-15z m159 -15 c-6 -22 -23 -38 -23 -21 0 17 12 41 20 41 5 0 6 -9 3 -20z
m-823 -134 c0 -7 -62 -36 -77 -36 -22 0 -14 16 15 27 28 11 62 16 62 9z m1480
-76 c0 -5 -2 -10 -4 -10 -3 0 -8 5 -11 10 -3 6 -1 10 4 10 6 0 11 -4 11 -10z"/>
<path d="M3035 5230 c-3 -5 1 -10 9 -10 9 0 16 5 16 10 0 6 -4 10 -9 10 -6 0
-13 -4 -16 -10z"/>
<path d="M3140 5210 c0 -5 5 -10 11 -10 5 0 7 5 4 10 -3 6 -8 10 -11 10 -2 0
-4 -4 -4 -10z"/>
<path d="M2669 5193 c-13 -16 -12 -17 4 -4 16 13 21 21 13 21 -2 0 -10 -8 -17
-17z"/>
<path d="M2320 5110 c0 -5 7 -10 15 -10 8 0 15 5 15 10 0 6 -7 10 -15 10 -8 0
-15 -4 -15 -10z"/>
<path d="M2940 3842 c-14 -2 -37 -13 -52 -23 -15 -11 -41 -25 -58 -30 -16 -6
-30 -15 -30 -20 0 -13 14 -11 29 4 8 7 11 7 8 1 -4 -7 0 -17 8 -24 12 -10 15
-10 15 3 0 20 19 26 49 15 15 -5 28 -5 35 2 13 13 39 13 31 0 -9 -15 39 -12
71 5 16 8 36 15 44 15 8 0 23 7 34 15 17 13 17 14 -10 21 -15 4 -46 2 -68 -4
-45 -12 -65 -6 -41 11 13 10 11 12 -12 12 -16 1 -39 -1 -53 -3z"/>
<path d="M1998 3689 c-60 -14 -96 -28 -114 -44 -15 -14 -23 -25 -19 -25 4 0
-2 -9 -14 -19 -28 -24 -14 -34 49 -36 25 -1 61 -3 81 -4 37 -1 89 -40 89 -67
0 -24 -60 -55 -141 -75 -44 -10 -89 -19 -99 -19 -10 0 -21 -7 -24 -16 -3 -8
-10 -13 -15 -10 -5 3 -14 -1 -21 -8 -9 -12 -38 -23 -77 -29 -5 0 -17 -9 -27
-19 -11 -10 -23 -18 -28 -18 -17 0 -7 -15 16 -26 28 -13 112 4 125 24 4 6 16
10 26 8 66 -12 125 -17 125 -9 0 4 24 9 53 10 28 0 76 3 105 5 29 3 55 1 57
-2 2 -4 26 -2 52 5 32 8 51 19 58 33 6 13 23 24 42 28 18 3 38 16 46 28 35 52
24 149 -19 168 -13 6 -24 15 -24 20 0 4 -7 8 -15 8 -9 0 -18 7 -21 15 -4 8
-10 12 -15 9 -5 -3 -9 3 -9 13 0 10 -13 27 -28 38 -21 15 -24 15 -13 2 18 -23
12 -22 -47 8 -28 14 -54 25 -58 24 -5 0 -48 -10 -96 -20z"/>
<path d="M2860 3682 c-19 -2 -39 -8 -44 -13 -6 -5 -17 -9 -26 -9 -26 0 -50
-33 -43 -58 4 -18 2 -21 -11 -16 -9 3 -16 2 -16 -4 0 -6 4 -12 10 -14 5 -1 11
-25 13 -51 6 -56 25 -76 75 -77 22 0 31 -4 26 -12 -4 -6 1 -17 11 -24 14 -11
26 -10 69 6 28 10 69 21 91 25 22 3 58 11 80 17 56 16 66 18 105 19 38 2 106
32 112 49 6 19 61 18 96 -1 37 -22 73 -25 70 -7 -3 12 2 13 50 16 39 3 24 24
-15 22 -21 -1 -49 -2 -62 -1 -24 1 -24 1 -5 16 10 8 17 15 14 15 -3 1 -14 4
-25 6 -22 6 -212 6 -407 2 -122 -3 -134 -1 -129 26 1 4 -3 14 -9 21 -8 9 -6
17 5 28 19 19 11 24 -35 19z m327 -118 c-3 -3 -12 -4 -19 -1 -8 3 -5 6 6 6 11
1 17 -2 13 -5z"/>
<path d="M3235 3404 c-104 -32 -212 -54 -288 -59 -76 -4 -93 -10 -50 -19 130
-27 180 -24 289 19 65 26 134 69 124 78 -3 2 -36 -7 -75 -19z"/>
<path d="M2125 3252 c-23 -13 -56 -17 -150 -17 -66 0 -133 3 -148 7 -31 8 -57
1 -57 -14 0 -5 9 -7 19 -3 12 3 40 -4 68 -17 39 -18 64 -22 134 -22 81 1 91 3
153 38 36 20 66 39 66 41 0 12 -58 3 -85 -13z"/>
<path d="M3169 2953 c5 -10 29 -38 51 -63 23 -24 49 -58 57 -75 9 -16 19 -32
23 -35 8 -5 53 -171 48 -175 -2 -1 -13 -8 -25 -14 -30 -15 -30 -41 0 -41 13 0
28 -5 34 -11 9 -9 15 -3 26 23 15 36 16 70 3 145 -4 24 -6 44 -4 45 8 7 -51
89 -99 135 -29 28 -53 50 -53 47 0 -2 -9 5 -20 16 -26 26 -55 28 -41 3z"/>
<path d="M2035 2886 c-27 -17 -46 -40 -66 -82 -16 -33 -28 -64 -29 -70 0 -6
-11 -21 -25 -34 -19 -18 -25 -34 -25 -66 0 -50 11 -61 33 -36 13 14 48 95 46
105 -3 8 36 77 43 77 4 0 8 6 8 14 0 8 16 32 35 53 19 21 35 41 35 45 0 17
-19 15 -55 -6z"/>
<path d="M2738 2900 c-33 -10 -98 -49 -98 -58 0 -4 23 -5 50 -4 28 2 56 -1 63
-7 25 -20 119 -15 170 9 26 12 47 26 47 30 0 9 -26 7 -36 -2 -3 -4 -29 5 -57
18 -53 24 -92 28 -139 14z"/>
<path d="M2365 2880 c-3 -6 -12 -10 -18 -8 -21 3 -89 -20 -108 -38 -10 -9 -31
-16 -46 -16 -25 0 -26 -1 -7 -14 10 -8 27 -21 36 -29 25 -21 50 -25 168 -29
58 -2 126 -7 151 -11 41 -6 49 -4 74 19 24 23 27 29 15 36 -8 6 -20 10 -26 10
-6 0 -15 10 -21 23 -10 20 -74 46 -133 52 -8 1 -29 5 -47 9 -19 4 -34 3 -38
-4z"/>
<path d="M3090 2578 c-14 -6 -74 -11 -133 -12 -67 -1 -111 -6 -115 -13 -12
-19 -83 -28 -93 -12 -6 11 -39 14 -134 15 -69 1 -125 -1 -125 -5 0 -4 -35 -7
-77 -7 -43 -1 -116 -6 -163 -12 -47 -7 -94 -12 -104 -13 -10 0 -37 -12 -60
-27 -23 -15 -49 -31 -59 -37 -10 -5 -18 -13 -18 -17 1 -5 1 -17 1 -28 0 -12 7
-20 16 -20 9 0 18 -9 21 -20 3 -11 13 -20 22 -20 9 0 33 -11 53 -25 20 -14 48
-25 60 -25 13 0 28 -4 33 -9 19 -19 139 -31 153 -16 3 3 -4 12 -16 21 -33 23
-56 72 -42 89 10 12 15 12 35 -1 21 -14 23 -13 29 12 6 23 10 26 39 20 18 -4
34 -11 35 -16 7 -19 29 -10 41 16 11 25 15 26 62 21 42 -5 56 -3 79 14 22 17
38 20 76 16 35 -3 56 0 77 14 23 14 35 15 53 7 18 -9 33 -7 65 5 30 12 47 14
60 6 11 -5 25 -9 32 -8 22 3 37 -1 36 -8 -3 -21 14 -51 26 -46 8 2 11 11 8 19
-3 8 0 14 7 14 6 0 9 -4 5 -9 -3 -5 -1 -12 4 -16 6 -3 8 -12 5 -19 -4 -11 4
-12 37 -6 55 10 141 95 132 130 -3 12 -11 23 -17 25 -31 10 -124 11 -146 3z"/>
<path d="M3040 2410 c0 -5 5 -10 11 -10 5 0 7 5 4 10 -3 6 -8 10 -11 10 -2 0
-4 -4 -4 -10z"/>
<path d="M2587 2289 c-18 -11 -89 -15 -104 -6 -4 3 -19 -1 -33 -9 -40 -23 174
-16 226 8 l39 17 -55 0 c-30 0 -63 -4 -73 -10z"/>
<path d="M2360 2120 c0 -7 9 -14 20 -17 20 -5 28 -33 10 -33 -22 0 26 -49 61
-63 50 -20 236 -15 284 7 37 18 47 49 19 60 -12 5 -10 11 13 31 l28 26 -37 -7
c-56 -9 -264 -10 -335 -1 -45 6 -63 5 -63 -3z"/>
<path d="M1886 2033 c10 -16 29 -40 43 -54 53 -54 193 -207 207 -228 16 -22
57 -28 84 -11 12 7 10 11 -10 19 -14 6 -41 29 -60 51 -19 23 -49 57 -67 76
-17 19 -27 36 -23 39 14 9 -16 68 -35 71 -22 3 -56 34 -49 45 7 12 -13 11 -35
-1 -13 -6 -24 -5 -37 5 -30 23 -38 17 -18 -12z"/>
<path d="M3634 1829 c-34 -50 -150 -158 -182 -170 -13 -5 -20 -13 -17 -19 4
-6 -1 -7 -11 -3 -14 5 -12 10 12 32 16 14 38 45 49 68 11 24 23 43 26 43 4 0
9 6 12 13 9 24 -41 13 -70 -15 -44 -42 -109 -68 -178 -70 -22 -1 -44 -4 -50
-8 -5 -4 -31 -13 -57 -21 -27 -7 -48 -16 -48 -20 0 -3 -6 -6 -12 -7 -7 0 -39
-3 -70 -5 -31 -2 -64 -10 -73 -17 -9 -7 -30 -14 -48 -15 -18 -1 -36 -4 -42 -6
-15 -5 -75 19 -75 30 0 13 -58 44 -69 37 -16 -10 -245 -5 -255 5 -4 3 -32 4
-64 2 -85 -7 -90 -6 -118 16 -15 12 -40 21 -56 21 l-30 0 26 -22 c15 -13 42
-38 62 -55 20 -18 40 -30 45 -27 5 3 6 -2 3 -10 -4 -11 2 -19 20 -26 34 -13
33 -28 -1 -26 -19 1 -29 -5 -31 -17 -2 -10 0 -16 5 -15 5 2 27 -15 49 -37 108
-106 181 -150 249 -150 22 0 45 -6 50 -13 8 -10 18 -9 50 7 22 10 44 16 50 13
5 -3 21 -7 35 -8 20 -1 29 6 44 38 14 29 21 36 27 26 8 -11 10 -11 18 1 5 7
14 10 20 7 7 -5 10 -2 9 6 -2 7 4 13 12 13 8 0 20 6 25 13 6 7 21 14 34 17 13
2 34 13 45 24 12 10 30 17 41 15 11 -2 35 -6 54 -7 19 -2 37 -9 39 -15 2 -7
10 -12 18 -12 25 0 15 -25 -26 -65 -22 -21 -40 -48 -40 -59 0 -11 -19 -38 -42
-61 -39 -38 -68 -76 -68 -90 0 -3 11 -3 25 -1 15 3 24 0 22 -7 -1 -7 10 -11
28 -10 17 1 22 -1 12 -3 -24 -7 -11 -24 18 -24 29 0 80 43 183 155 44 47 155
204 191 270 12 22 33 58 46 80 14 22 29 49 34 60 5 11 23 44 40 73 17 28 28
52 25 52 -4 0 -1 7 6 15 7 9 11 18 8 20 -3 3 -18 -13 -34 -36z"/>
<path d="M2355 1374 c11 -57 9 -145 -4 -153 -7 -5 -8 -31 -1 -91 9 -82 21
-113 34 -91 14 22 24 10 24 -26 -1 -50 14 -110 37 -153 11 -19 18 -39 17 -43
-1 -5 4 -23 12 -40 14 -33 50 -128 51 -137 3 -17 39 -116 44 -120 4 -3 15 -33
26 -68 10 -35 22 -65 26 -68 5 -2 14 15 20 38 7 24 19 52 26 63 24 36 18 67
-41 200 -7 17 -18 41 -24 55 -5 14 -17 41 -25 60 -13 31 -183 527 -185 540 -2
19 -23 59 -33 66 -9 5 -10 -2 -4 -32z m230 -674 c3 -6 -1 -7 -9 -4 -18 7 -21
14 -7 14 6 0 13 -4 16 -10z m0 -30 c3 -6 -1 -7 -9 -4 -18 7 -21 14 -7 14 6 0
13 -4 16 -10z m0 -30 c3 -5 1 -10 -4 -10 -6 0 -11 5 -11 10 0 6 2 10 4 10 3 0
8 -4 11 -10z"/>
<path d="M2775 1280 c-3 -5 -1 -10 4 -10 6 0 11 5 11 10 0 6 -2 10 -4 10 -3 0
-8 -4 -11 -10z"/>
<path d="M2858 1273 c7 -3 16 -2 19 1 4 3 -2 6 -13 5 -11 0 -14 -3 -6 -6z"/>
<path d="M2655 1219 c4 -6 -1 -16 -11 -24 -18 -12 -18 -14 1 -50 27 -49 39
-58 83 -60 56 -3 81 18 79 66 -1 36 -4 39 -24 34 -13 -3 -23 -1 -23 3 0 5 -11
7 -24 5 -16 -3 -31 2 -45 16 -22 22 -47 29 -36 10z"/>
</g>
</svg>
