<?xml version="1.0" standalone="no"?>
<!DOCTYPE svg PUBLIC "-//W3C//DTD SVG 20010904//EN"
 "http://www.w3.org/TR/2001/REC-SVG-20010904/DTD/svg10.dtd">
<svg version="1.0" xmlns="http://www.w3.org/2000/svg"
 width="555.000000pt" height="555.000000pt" viewBox="0 0 555.000000 555.000000"
 preserveAspectRatio="xMidYMid meet">
<metadata>
Created by potrace 1.14, written by Peter Selinger 2001-2017
</metadata>
<g transform="translate(0.000000,555.000000) scale(0.100000,-0.100000)"
fill="#000000" stroke="none">
<path d="M2924 5295 c-3 -14 -14 -30 -23 -36 -12 -8 -11 -9 9 -3 31 8 27 4 35
37 5 17 3 27 -4 27 -6 0 -13 -11 -17 -25z"/>
<path d="M2677 5253 c-4 -3 -7 -13 -7 -22 0 -12 3 -12 12 -3 7 7 23 12 38 11
25 0 25 0 3 -9 -13 -5 -23 -17 -23 -27 0 -13 -2 -15 -9 -5 -6 10 -10 10 -21
-3 -10 -12 -10 -15 0 -15 27 0 0 -12 -32 -15 -30 -2 -35 -7 -51 -53 -17 -46
-49 -73 -62 -53 -4 8 -65 2 -65 -6 0 -2 7 -11 15 -20 20 -19 13 -27 -14 -18
-14 4 -21 15 -21 31 0 23 -9 28 -37 25 -7 -1 -13 5 -13 14 0 17 -16 20 -25 5
-9 -15 -71 -12 -84 4 -17 20 31 27 49 8 10 -11 15 -12 18 -3 2 7 1 15 -2 19
-12 12 -127 15 -139 3 -6 -6 -46 -11 -95 -11 -61 0 -94 -5 -126 -20 -80 -36
-164 -99 -208 -156 -24 -30 -53 -67 -66 -80 -41 -46 -92 -133 -86 -149 7 -18
-12 -71 -35 -100 -9 -11 -25 -36 -36 -55 -10 -19 -24 -39 -31 -45 -6 -5 -20
-32 -29 -60 -10 -27 -24 -57 -32 -66 -17 -21 -17 -53 2 -90 20 -38 22 -354 3
-426 -8 -31 -13 -113 -12 -228 0 -206 10 -320 30 -352 7 -12 19 -63 25 -115
12 -101 26 -151 40 -142 5 3 9 16 9 30 0 14 7 60 16 102 9 42 20 111 24 152 4
41 12 89 18 105 18 49 42 170 42 208 0 19 7 48 15 63 8 16 15 38 15 49 0 10 6
37 14 60 7 22 21 74 31 115 39 166 54 198 126 269 148 144 291 276 310 285 10
5 19 13 19 18 0 4 7 8 15 8 8 0 15 4 15 9 0 10 102 77 133 87 12 3 27 11 34
16 13 10 203 37 236 33 12 -2 35 -8 50 -14 16 -6 33 -9 37 -6 5 3 26 -2 47
-11 21 -8 49 -18 62 -20 13 -3 33 -11 44 -19 14 -9 34 -13 56 -9 28 4 44 0 74
-20 21 -14 42 -26 46 -26 13 0 72 -28 106 -50 17 -11 47 -29 67 -40 20 -11 76
-66 125 -122 48 -57 100 -115 115 -130 15 -14 28 -35 28 -47 0 -27 46 -110 76
-138 13 -12 24 -26 24 -31 0 -5 7 -15 15 -22 8 -7 15 -20 15 -29 0 -9 5 -22
12 -29 14 -14 27 -48 57 -147 12 -38 28 -90 35 -115 8 -25 17 -60 20 -78 3
-19 12 -48 20 -65 7 -18 22 -52 32 -77 10 -25 26 -56 36 -69 11 -14 16 -32 12
-46 -11 -42 48 -127 76 -110 4 2 10 23 13 45 5 38 -3 76 -26 127 -7 16 -5 34
7 67 9 25 18 54 19 65 2 26 2 26 35 -4 24 -23 27 -24 30 -7 2 10 -1 44 -6 75
-10 61 -2 72 24 32 37 -57 45 -11 14 80 -11 32 -18 60 -16 62 2 3 -4 23 -14
46 -17 39 -22 66 -36 206 -3 30 -9 62 -14 72 -6 9 -13 50 -16 91 -6 69 -11 93
-49 232 -17 61 -62 156 -74 156 -3 0 -15 17 -26 37 -11 21 -41 61 -67 90 -27
29 -48 57 -48 61 0 5 -13 22 -30 38 -16 16 -30 34 -30 40 0 5 -20 29 -45 52
-25 23 -45 48 -45 55 0 20 -109 126 -136 133 -13 4 -24 10 -24 15 0 5 -7 9
-15 9 -8 0 -15 5 -15 10 0 6 -4 10 -10 10 -5 0 -20 9 -33 21 -17 14 -23 27
-19 45 3 18 0 24 -14 24 -25 1 -52 22 -47 38 3 7 -4 12 -15 12 -11 0 -22 6
-25 13 -2 6 -8 8 -13 4 -5 -5 -1 -13 9 -18 9 -6 17 -19 17 -30 0 -17 -4 -19
-22 -12 -13 4 -37 8 -55 8 -17 0 -31 2 -31 5 2 21 -6 29 -29 33 l-28 4 33 8
c17 4 32 12 32 17 0 14 -63 -2 -73 -18 -4 -8 -19 -14 -33 -14 -14 0 -22 4 -19
10 3 6 -1 10 -9 10 -9 0 -16 -5 -16 -12 0 -6 -6 -4 -13 6 -8 11 -20 17 -28 14
-8 -3 -33 3 -57 14 -42 17 -132 25 -145 11z m123 -32 c0 -5 -9 -11 -20 -14
-11 -3 -20 -13 -20 -24 0 -20 -44 -73 -61 -73 -11 0 -4 15 18 42 8 9 16 23 17
32 4 28 66 63 66 37z m112 -63 c-6 -6 -15 -8 -19 -4 -4 4 -1 11 7 16 19 12 27
3 12 -12z m113 2 c3 -5 1 -10 -4 -10 -6 0 -11 5 -11 10 0 6 2 10 4 10 3 0 8
-4 11 -10z m-375 -29 c0 -6 -4 -13 -10 -16 -5 -3 -10 1 -10 9 0 9 5 16 10 16
6 0 10 -4 10 -9z m160 -22 c-7 -11 -14 -18 -17 -15 -3 3 0 12 7 21 18 21 23
19 10 -6z m-820 -133 c0 -12 -59 -33 -71 -25 -10 6 -8 9 8 9 12 0 25 5 28 10
6 10 35 14 35 6z"/>
<path d="M3075 5200 c-4 -6 3 -10 14 -10 25 0 27 6 6 13 -8 4 -17 2 -20 -3z"/>
<path d="M2917 3835 c-21 -7 -46 -20 -56 -29 -10 -9 -27 -16 -38 -16 -12 0
-24 -7 -27 -16 -4 -11 -1 -14 12 -12 9 2 22 -3 29 -12 10 -13 13 -13 26 4 11
15 21 18 47 13 19 -4 38 -2 46 4 10 8 14 9 14 0 0 -15 45 -14 83 3 18 7 45 19
61 25 24 10 27 14 15 22 -19 12 -71 11 -103 -1 -17 -6 -26 -6 -26 0 0 6 5 10
10 10 6 0 10 4 10 9 0 13 -60 11 -103 -4z"/>
<path d="M2040 3703 c-24 -3 -49 -8 -55 -13 -5 -4 -25 -11 -44 -15 -39 -8
-118 -82 -104 -96 6 -6 30 -12 54 -14 109 -12 135 -18 157 -38 30 -27 28 -38
-11 -63 -38 -26 -84 -40 -155 -49 -29 -4 -58 -13 -65 -20 -7 -7 -23 -16 -35
-19 -12 -4 -22 -11 -22 -15 0 -5 -17 -11 -37 -15 -21 -3 -51 -17 -68 -30 -25
-20 -28 -27 -17 -38 17 -17 95 -15 124 4 17 11 55 15 153 16 72 1 144 5 160
10 17 5 39 6 51 2 27 -10 114 12 129 33 7 9 28 24 48 32 20 8 40 23 45 32 16
31 21 93 11 120 -11 30 -54 73 -72 73 -13 0 -47 35 -47 49 0 4 -9 16 -21 27
-17 15 -22 16 -29 4 -7 -12 -11 -12 -27 2 -22 19 -63 26 -123 21z"/>
<path d="M2830 3678 c-52 -11 -93 -45 -87 -70 3 -11 0 -18 -9 -18 -15 0 -18
-12 -6 -24 8 -9 9 -13 11 -67 1 -36 5 -42 34 -54 19 -8 43 -12 54 -9 16 4 20
1 19 -17 -1 -30 25 -36 73 -16 39 16 208 58 256 63 70 8 96 16 123 38 15 13
34 25 42 26 23 4 80 -12 80 -21 0 -5 14 -9 30 -9 17 0 30 4 30 9 0 5 18 12 40
16 56 10 40 25 -27 25 -48 0 -54 2 -43 15 25 30 -32 36 -259 30 -119 -4 -232
-7 -252 -9 -33 -1 -36 1 -34 21 1 12 -5 25 -13 28 -13 5 -13 8 2 23 30 34 19
38 -64 20z"/>
<path d="M3298 3433 c-3 -9 -112 -43 -210 -67 -36 -9 -103 -16 -147 -16 -47 0
-81 -4 -81 -10 0 -5 2 -10 4 -10 2 0 40 -7 85 -15 77 -15 131 -14 176 4 11 5
37 16 58 25 21 9 43 16 48 16 15 0 89 59 89 71 0 11 -17 12 -22 2z"/>
<path d="M2100 3249 c-56 -20 -57 -20 -289 -7 -30 2 -46 -1 -49 -11 -3 -10 3
-12 26 -6 17 3 33 2 36 -4 14 -22 120 -43 190 -38 69 6 161 41 186 72 11 13 8
15 -16 14 -16 0 -54 -9 -84 -20z"/>
<path d="M3156 2971 c-3 -5 15 -31 40 -57 69 -73 113 -149 135 -228 23 -88 23
-84 -3 -88 -17 -2 -24 -11 -26 -32 -3 -26 -1 -28 22 -22 13 3 28 2 31 -4 12
-19 21 -10 34 34 10 36 10 59 0 123 -6 43 -18 85 -25 94 -8 8 -14 21 -14 28 0
15 -81 93 -137 132 -46 32 -49 33 -57 20z"/>
<path d="M2024 2882 c-35 -30 -67 -83 -78 -126 -4 -16 -20 -42 -37 -58 -16
-16 -29 -40 -29 -54 0 -13 -5 -24 -12 -24 -6 0 -1 -10 11 -22 33 -30 51 -15
79 66 22 65 85 176 100 176 10 0 41 57 34 64 -12 13 -38 4 -68 -22z"/>
<path d="M2710 2892 c-38 -18 -70 -43 -70 -53 0 -3 24 -6 53 -7 28 0 77 -5
107 -10 61 -10 116 3 160 39 l25 20 -35 -5 c-25 -4 -46 0 -73 14 -46 25 -119
26 -167 2z"/>
<path d="M2310 2869 c-36 -12 -70 -27 -76 -35 -6 -8 -23 -14 -38 -14 -35 0
-33 -10 7 -36 45 -31 72 -37 157 -40 41 -1 110 -5 152 -9 64 -7 82 -5 103 9
30 20 32 42 4 51 -11 4 -24 16 -28 28 -7 16 -25 26 -72 39 -103 27 -138 28
-209 7z"/>
<path d="M3085 2581 c-4 -7 -51 -11 -126 -11 -101 0 -119 -2 -119 -15 0 -13
-10 -15 -55 -11 -30 2 -59 7 -65 11 -20 13 -194 14 -209 2 -8 -7 -16 -11 -18
-9 -1 1 -4 2 -5 1 -2 0 -68 -2 -147 -5 -80 -3 -152 -9 -162 -15 -10 -5 -28 -9
-41 -9 -13 0 -40 -14 -61 -31 -20 -17 -41 -28 -46 -24 -14 8 -31 -28 -24 -53
3 -12 11 -22 18 -22 8 0 16 -8 20 -19 3 -10 18 -21 33 -24 15 -4 40 -18 56
-32 16 -14 39 -25 51 -25 13 0 39 -7 58 -15 37 -15 93 -20 121 -9 18 7 22 24
6 24 -19 0 -51 40 -57 72 -6 33 -2 34 50 13 14 -6 17 -2 17 19 0 30 23 34 54
11 28 -21 41 -19 56 10 15 28 56 34 91 13 17 -11 22 -10 32 3 22 30 57 41 103
34 32 -4 50 -2 66 9 14 10 34 13 62 10 27 -4 51 0 70 10 25 12 32 13 48 2 11
-8 27 -12 37 -9 20 5 41 -33 41 -72 0 -25 14 -33 24 -16 4 5 0 12 -6 14 -10 4
-10 8 1 15 7 5 11 14 7 20 -3 6 -3 13 2 16 4 2 9 -7 10 -21 3 -33 0 -32 44
-24 25 4 53 21 88 54 48 47 58 69 42 93 -10 16 -158 29 -167 15z"/>
<path d="M2748 2323 c7 -3 16 -2 19 1 4 3 -2 6 -13 5 -11 0 -14 -3 -6 -6z"/>
<path d="M2565 2290 c-22 -5 -52 -6 -67 -3 -16 3 -36 -1 -49 -11 -22 -15 -17
-16 86 -16 89 1 117 5 145 20 l35 19 -55 -1 c-30 0 -73 -4 -95 -8z"/>
<path d="M2360 2120 c0 -5 9 -14 21 -20 14 -8 17 -15 11 -23 -15 -18 26 -62
68 -75 29 -9 143 -18 160 -12 3 1 25 4 48 6 84 10 118 36 94 74 -8 13 -6 22
11 40 l22 22 -90 -8 c-95 -8 -130 -8 -262 1 -50 3 -83 1 -83 -5z"/>
<path d="M1870 2060 c0 -18 13 -34 228 -270 23 -25 42 -48 42 -52 0 -9 100
-11 100 -2 0 11 -30 35 -38 30 -4 -2 -17 9 -27 25 -11 16 -25 29 -32 29 -6 0
-15 10 -19 22 -4 13 -19 34 -33 48 -15 14 -25 33 -23 42 4 22 -26 68 -44 68
-8 0 -17 7 -20 15 -4 8 -13 15 -21 15 -8 0 -11 5 -7 11 4 8 -3 9 -24 4 -21 -4
-39 -1 -56 10 -18 12 -26 13 -26 5z"/>
<path d="M3646 1845 c-16 -24 -133 -144 -166 -170 -20 -16 -50 -26 -50 -17 0
4 8 12 18 19 10 6 33 40 51 75 18 34 29 60 25 56 -4 -4 -12 -4 -18 1 -8 7 -26
-4 -55 -30 -25 -21 -52 -39 -61 -39 -9 0 -21 -5 -26 -10 -6 -6 -35 -13 -65
-17 -30 -3 -93 -19 -142 -34 -48 -16 -105 -29 -128 -29 -22 0 -50 -6 -62 -14
-37 -23 -104 -28 -137 -11 -17 9 -30 19 -30 23 0 18 -66 31 -116 24 -28 -5
-60 -5 -72 -1 -11 4 -43 7 -72 5 -28 -1 -54 2 -56 6 -3 5 -43 7 -89 6 -67 -2
-86 0 -102 15 -11 10 -35 17 -57 17 l-38 0 30 -25 c17 -14 35 -25 41 -25 6 0
11 -6 11 -12 0 -7 14 -21 30 -30 17 -9 30 -23 30 -31 0 -7 12 -18 28 -24 l27
-11 -32 -1 c-17 -1 -34 -5 -37 -10 -7 -10 75 -101 91 -101 5 0 31 -20 56 -45
26 -25 50 -45 54 -45 5 0 19 -6 33 -13 14 -7 45 -14 70 -16 24 -1 50 -7 57
-12 9 -8 21 -6 42 4 19 9 46 13 75 10 42 -5 45 -4 52 21 3 14 10 26 14 26 5 0
11 8 13 18 4 16 5 16 6 0 1 -22 21 -24 21 -2 0 10 5 14 16 10 8 -3 12 -2 9 4
-3 6 3 10 15 10 11 0 23 7 26 15 4 8 16 15 29 15 12 0 30 9 40 20 15 17 27 20
67 16 48 -4 108 -25 108 -37 0 -4 -18 -25 -40 -47 -22 -22 -40 -49 -40 -61 0
-22 -32 -61 -50 -61 -5 0 -10 -4 -10 -10 0 -5 -11 -20 -25 -34 -29 -30 -33
-56 -6 -56 10 0 30 -11 44 -24 54 -50 87 -25 298 222 20 24 42 55 50 70 8 15
17 29 20 32 3 3 29 46 58 95 28 50 56 97 60 105 62 102 119 245 67 165z"/>
<path d="M2357 1319 c4 -63 3 -93 -5 -98 -8 -5 -9 -30 -2 -89 11 -94 16 -108
35 -92 10 8 15 8 20 -1 4 -6 2 -15 -4 -19 -10 -5 -9 -16 3 -45 9 -20 16 -47
16 -59 0 -12 4 -26 9 -32 5 -5 21 -43 35 -84 41 -121 92 -263 106 -295 7 -16
12 -34 11 -39 -1 -5 2 -12 7 -15 5 -3 13 -18 18 -33 5 -16 13 -28 18 -29 6 0
22 32 36 72 l27 73 -18 53 c-11 28 -31 78 -45 110 -14 32 -27 67 -30 77 -2 11
-7 22 -12 25 -5 3 -11 17 -14 31 -3 14 -22 70 -43 125 -36 98 -85 247 -110
335 -19 66 -44 120 -55 120 -6 0 -7 -34 -3 -91z"/>
<path d="M2770 1280 c-13 -8 -12 -10 3 -10 9 0 17 5 17 10 0 12 -1 12 -20 0z"/>
<path d="M2850 1270 c0 -5 7 -7 15 -4 8 4 15 8 15 10 0 2 -7 4 -15 4 -8 0 -15
-4 -15 -10z"/>
<path d="M2642 1200 c-12 -26 -11 -34 5 -62 10 -18 25 -38 33 -45 21 -17 72
-16 106 2 25 12 29 21 29 55 0 36 -3 40 -25 41 -71 3 -94 8 -102 23 -14 24
-32 19 -46 -14z"/>
</g>
</svg>
