<?xml version="1.0" standalone="no"?>
<!DOCTYPE svg PUBLIC "-//W3C//DTD SVG 20010904//EN"
 "http://www.w3.org/TR/2001/REC-SVG-20010904/DTD/svg10.dtd">
<svg version="1.0" xmlns="http://www.w3.org/2000/svg"
 width="1308.000000pt" height="1308.000000pt" viewBox="0 0 1308.000000 1308.000000"
 preserveAspectRatio="xMidYMid meet">
<metadata>
Created by potrace 1.14, written by Peter Selinger 2001-2017
</metadata>
<g transform="translate(0.000000,1308.000000) scale(0.100000,-0.100000)"
fill="#000000" stroke="none">
<path d="M6940 13065 c-7 -9 -17 -39 -21 -68 -7 -46 -15 -58 -61 -99 -41 -36
-48 -47 -33 -48 19 0 19 -1 -3 -22 l-22 -22 -21 22 c-13 14 -27 21 -39 17 -12
-4 -19 1 -23 14 -4 17 -13 20 -49 19 -25 0 -56 6 -69 13 -17 10 -64 14 -159
14 -121 0 -140 -2 -181 -23 -72 -36 -109 -77 -109 -122 0 -24 -9 -51 -26 -76
-34 -50 -75 -140 -103 -226 -24 -73 -46 -102 -57 -74 -4 11 -17 16 -40 14 -18
-1 -35 0 -38 3 -3 2 -8 34 -11 69 -8 79 -13 111 -18 116 -2 2 -12 -5 -22 -16
-12 -13 -19 -43 -24 -97 -7 -89 -17 -97 -81 -68 -23 10 -66 18 -107 19 l-68 1
-1 39 c0 22 -6 42 -15 46 -8 5 -59 20 -114 35 -120 31 -255 35 -331 9 -60 -20
-73 -22 -209 -29 -377 -18 -348 -11 -577 -143 -43 -24 -121 -74 -128 -82 -3
-3 -23 -18 -45 -35 -50 -37 -153 -140 -225 -225 -30 -36 -58 -67 -61 -70 -34
-31 -254 -335 -306 -425 -47 -81 -59 -125 -43 -155 9 -18 6 -32 -20 -86 -17
-35 -29 -72 -28 -81 2 -9 -9 -23 -27 -33 -16 -9 -38 -34 -48 -56 -11 -21 -40
-61 -67 -89 -51 -54 -80 -104 -104 -175 -31 -97 -67 -181 -135 -317 -39 -79
-44 -95 -33 -110 25 -37 63 -129 80 -197 18 -70 20 -122 8 -181 -19 -93 -18
-129 8 -164 14 -19 23 -37 21 -41 -7 -11 -15 -108 -20 -250 -5 -143 -10 -200
-26 -320 -17 -125 -17 -131 -28 -250 -17 -185 -21 -281 -21 -525 -1 -238 4
-335 20 -395 5 -19 12 -85 15 -145 10 -198 14 -225 40 -269 28 -48 51 -134 61
-226 3 -36 8 -78 9 -95 2 -16 6 -64 9 -105 4 -41 9 -97 12 -125 5 -48 7 -65
19 -136 3 -17 12 -40 19 -52 8 -12 17 -47 20 -76 11 -94 21 -86 46 40 18 90
23 122 35 207 3 20 8 48 11 60 3 13 7 43 10 65 10 84 35 207 49 248 9 23 13
51 9 61 -7 22 5 23 51 4 19 -8 35 -13 35 -11 0 3 11 0 24 -5 20 -7 32 -4 61
15 70 48 134 74 233 95 29 7 60 19 68 28 20 20 67 19 119 -3 48 -21 39 -27
-66 -51 -80 -17 -118 -44 -140 -97 -11 -26 -10 -31 7 -44 23 -17 74 -10 87 12
12 22 67 18 144 -11 180 -67 200 -73 323 -100 30 -6 125 -6 160 1 14 3 39 7
55 11 68 13 247 75 327 113 47 23 93 41 100 41 8 0 23 9 33 20 11 12 34 28 52
37 37 17 90 68 98 94 3 10 19 22 35 28 17 6 30 17 30 27 0 15 2 15 25 0 24
-16 26 -16 60 18 19 20 35 38 35 41 0 3 18 24 39 45 26 27 48 40 66 40 21 0
30 8 46 46 12 25 23 69 26 97 3 29 11 62 19 74 8 12 14 42 14 66 0 27 6 50 18
63 9 10 29 35 44 55 18 24 47 44 92 63 60 26 67 32 76 67 26 97 136 88 237
-21 28 -30 78 -66 134 -95 48 -26 91 -56 94 -66 3 -9 8 -41 11 -70 8 -78 28
-119 58 -119 14 0 29 -7 34 -17 6 -10 25 -17 48 -19 22 -1 53 -8 69 -15 17 -7
55 -15 85 -18 l55 -6 1 -53 c3 -112 64 -156 249 -179 28 -3 57 -9 65 -13 48
-25 287 -32 382 -11 32 7 60 12 63 12 8 -1 237 79 275 95 208 91 343 227 358
361 l5 45 46 -8 c52 -8 344 -13 392 -6 24 3 35 12 42 33 11 29 54 53 114 64
74 13 80 18 71 51 -6 25 -17 36 -48 48 -22 9 -51 16 -64 16 -23 0 -94 34 -206
98 -68 39 -116 41 -190 6 -47 -22 -69 -26 -150 -25 -52 0 -111 2 -130 5 -19 3
-59 8 -88 11 -30 2 -68 11 -84 20 -36 18 -62 19 -89 4 -11 -5 -54 -10 -97 -9
-42 1 -85 1 -94 1 -10 0 -20 4 -23 10 -4 5 1 9 9 9 8 0 18 4 21 10 4 6 -7 8
-27 6 -53 -6 -74 7 -87 58 -10 43 -14 46 -44 47 -62 1 -101 9 -119 26 -39 36
-10 76 65 87 44 7 90 29 130 62 28 24 62 26 117 9 24 -8 25 -3 4 37 -24 46
-12 72 43 93 27 10 60 28 76 41 26 22 29 22 69 8 22 -8 43 -13 45 -11 10 11
-12 36 -49 57 -33 19 -61 24 -140 28 -103 5 -139 20 -99 41 11 6 24 11 28 10
39 -7 44 16 6 26 -48 12 -434 15 -483 4 -73 -17 -84 -20 -113 -24 -60 -8 -94
-18 -140 -42 -27 -13 -63 -25 -81 -27 -19 -1 -65 -21 -104 -45 -69 -41 -92
-45 -92 -15 0 31 -37 13 -123 -63 -21 -19 -62 -45 -91 -59 -56 -26 -99 -66
-111 -103 -6 -19 -14 -21 -79 -21 -89 0 -105 -10 -114 -75 l-7 -50 -67 0 c-59
0 -70 -3 -84 -23 -11 -16 -22 -21 -35 -17 -18 6 -19 5 -8 -13 23 -37 7 -49
-73 -51 -77 -1 -86 2 -104 34 -6 11 -34 26 -65 35 -30 9 -68 24 -86 33 -18 9
-45 17 -61 17 -23 0 -31 6 -36 23 -4 18 -20 28 -68 45 -35 12 -80 23 -100 25
-21 1 -38 7 -38 13 0 7 -7 15 -16 18 -17 7 -451 8 -499 2 -67 -9 -111 -18
-127 -27 -10 -5 -18 -8 -18 -5 0 2 -27 -4 -59 -15 -33 -10 -110 -27 -171 -39
-184 -35 -266 -75 -184 -90 l29 -6 -31 -11 c-17 -6 -42 -9 -56 -6 -20 4 -31
-3 -57 -36 -18 -23 -39 -41 -46 -41 -25 0 -88 -63 -107 -107 l-19 -43 -59 0
c-32 0 -61 4 -64 9 -8 13 109 119 136 123 20 3 23 9 26 59 3 53 5 57 31 62 18
4 38 19 51 39 13 18 34 43 48 54 30 26 21 46 -16 39 -15 -3 -52 -8 -82 -11
-76 -7 -100 -13 -100 -23 0 -5 14 -8 30 -6 21 3 30 0 30 -10 0 -8 -1 -15 -2
-15 -2 -1 -21 -3 -43 -6 -48 -7 -55 -12 -32 -25 9 -6 17 -13 17 -17 0 -12 -59
-44 -69 -37 -9 5 -8 16 4 75 3 14 8 43 11 65 6 48 35 135 45 135 4 0 14 18 23
39 8 22 24 42 35 46 27 8 39 57 46 176 13 230 27 325 70 464 28 94 45 116 124
161 71 42 176 153 205 217 27 61 130 174 181 200 17 8 66 54 110 102 44 48
114 114 155 145 41 32 114 94 163 138 48 44 122 106 165 138 42 31 109 81 148
111 39 29 76 53 82 53 7 0 22 11 34 25 12 14 27 25 34 25 7 0 34 16 60 36 26
20 63 41 82 46 20 6 52 20 71 33 20 12 59 27 86 33 28 6 79 20 115 30 47 14
87 18 143 16 53 -3 77 0 77 7 0 8 24 10 83 4 99 -8 152 -13 237 -20 49 -4 75
-12 105 -33 45 -31 84 -48 134 -56 18 -3 65 -21 105 -39 94 -45 129 -55 204
-62 81 -7 120 -27 139 -73 l15 -37 20 24 c19 24 19 24 72 8 29 -9 61 -17 71
-17 9 0 57 -18 106 -40 49 -22 100 -40 112 -40 13 0 35 -10 48 -21 36 -32 87
-63 206 -125 68 -35 121 -71 143 -95 19 -22 40 -39 46 -39 19 0 71 -65 83
-103 8 -25 22 -40 47 -52 46 -22 73 -52 151 -170 37 -55 74 -109 83 -120 10
-11 26 -47 37 -80 11 -33 35 -75 52 -94 18 -19 42 -53 53 -75 11 -23 44 -72
74 -111 46 -60 86 -135 108 -198 3 -9 18 -22 33 -28 59 -22 89 -62 181 -245
64 -125 87 -196 97 -292 3 -31 8 -75 12 -97 3 -22 7 -55 9 -73 4 -48 35 -105
62 -117 13 -5 25 -21 28 -35 3 -14 16 -55 30 -92 14 -37 27 -95 30 -130 10
-121 14 -136 60 -191 13 -16 24 -35 24 -43 0 -8 28 -72 61 -142 123 -256 138
-290 167 -404 17 -64 39 -136 50 -160 29 -65 39 -97 56 -165 9 -35 27 -85 41
-113 30 -60 31 -80 5 -87 -27 -7 -33 -38 -28 -134 4 -59 10 -87 25 -107 44
-59 77 -10 74 109 -2 89 16 123 72 133 33 6 63 29 67 51 2 6 7 21 12 35 36 89
50 172 55 340 l5 175 -38 20 c-59 30 -121 100 -144 161 -11 30 -20 62 -20 70
0 21 19 55 41 74 10 8 32 39 48 68 27 52 29 53 35 27 4 -14 11 -23 15 -20 10
5 58 -75 81 -135 24 -63 78 -175 93 -195 15 -19 15 -18 22 17 9 48 -10 202
-43 348 -18 79 3 152 51 176 l30 16 -6 71 c-3 40 -24 146 -46 237 -23 91 -43
174 -45 185 -2 11 -13 44 -25 73 -12 28 -30 74 -40 100 -30 75 -38 131 -56
396 -3 38 -14 103 -24 145 -23 87 -53 255 -71 386 -16 113 -18 132 -26 175 -4
19 -8 42 -9 50 -2 13 -30 144 -40 190 -35 151 -102 357 -139 425 -67 124 -275
417 -401 565 -30 36 -78 101 -106 146 -27 45 -66 99 -86 120 -19 21 -58 64
-86 94 -28 30 -73 83 -100 118 -29 37 -56 62 -68 62 -10 0 -19 3 -20 8 0 4 -2
21 -3 39 -3 33 -4 35 -173 208 -87 89 -105 103 -178 145 -33 18 -79 49 -102
67 -55 45 -128 142 -111 148 7 2 36 10 63 18 l50 14 -77 36 c-90 42 -160 67
-189 67 -34 0 -78 29 -95 61 -12 24 -13 33 -4 39 8 5 5 12 -11 24 -13 9 -28
16 -34 16 -6 0 -52 27 -103 60 -88 57 -139 75 -130 48 3 -7 21 -22 41 -32 20
-11 37 -23 37 -27 0 -37 -148 -30 -151 7 -5 49 -15 57 -73 51 -28 -3 -61 -8
-73 -10 -34 -9 -74 -39 -69 -53 11 -28 -61 -27 -77 1 -5 10 -17 13 -38 10 -42
-8 -41 -8 -70 -6 -14 0 -34 7 -45 15 -18 14 -18 16 15 50 25 26 43 36 66 36
17 0 36 5 43 12 7 7 53 14 114 16 84 4 99 7 85 17 -11 8 -45 11 -100 9 -104
-3 -120 4 -89 45 26 36 21 56 -20 70 -40 14 -43 14 -58 -4z m-550 -224 c0 -14
-60 -57 -97 -69 -53 -18 -41 9 22 51 40 27 75 35 75 18z m-130 -7 c0 -3 -15
-21 -34 -41 -40 -43 -56 -29 -18 15 24 28 52 42 52 26z m318 -21 c-2 -10 -10
-18 -18 -18 -8 0 -16 8 -18 18 -2 12 3 17 18 17 15 0 20 -5 18 -17z m740 -41
c6 -18 -39 -32 -60 -18 -36 22 -30 37 14 34 23 -2 43 -9 46 -16z m-802 -28 c9
-37 -9 -51 -40 -30 -30 19 -33 31 -8 45 28 17 41 13 48 -15z m1028 -21 c11
-15 26 -40 33 -55 10 -24 10 -30 -3 -35 -21 -8 -87 13 -116 37 -22 19 -22 19
-2 20 29 0 37 11 17 25 -21 16 -8 35 24 35 15 0 33 -10 47 -27z m-1318 -27
c-17 -27 -56 -53 -56 -37 0 15 28 64 42 72 23 14 32 -8 14 -35z m1144 4 c0 -4
-6 -13 -13 -19 -10 -8 -19 -7 -33 4 -15 12 -16 16 -5 24 14 9 51 3 51 -9z
m-888 -27 c23 -21 23 -33 -2 -33 -16 0 -40 26 -40 44 0 12 24 6 42 -11z m435
-20 c6 -17 -36 -38 -49 -25 -17 17 -1 44 24 40 12 -2 23 -8 25 -15z m-483 -9
c30 -11 17 -47 -36 -98 -28 -27 -53 -45 -55 -39 -5 15 21 76 47 114 24 32 22
31 44 23z m784 -5 c-12 -7 -24 -7 -35 0 -15 9 -12 10 17 10 29 0 32 -1 18 -10z
m684 -99 c32 -15 28 -31 -5 -25 -36 7 -77 27 -77 37 0 11 45 5 82 -12z m-2554
-94 c3 -12 -1 -17 -10 -14 -7 3 -15 13 -16 22 -3 12 1 17 10 14 7 -3 15 -13
16 -22z m-868 -280 c0 -7 -63 -43 -87 -51 -34 -10 -28 12 10 35 28 18 77 27
77 16z m-142 -67 c-12 -7 -24 -7 -35 0 -15 9 -12 10 17 10 29 0 32 -1 18 -10z
m-544 -3484 c-4 -8 -12 -15 -20 -15 -8 0 -14 7 -14 15 0 8 9 15 20 15 13 0 18
-5 14 -15z m2126 -26 c0 -15 -11 -25 -40 -36 -27 -11 -40 -22 -40 -35 0 -28
-23 -17 -34 15 -15 42 12 61 107 76 4 0 7 -8 7 -20z m-2042 -179 c18 -11 32
-28 32 -39 0 -11 5 -23 10 -26 19 -12 10 -36 -17 -46 -16 -6 -64 -27 -108 -47
-56 -25 -93 -35 -123 -35 -40 2 -42 0 -36 -20 4 -12 8 -33 9 -47 3 -38 4 -40
20 -40 8 0 15 -4 15 -9 0 -14 -23 -27 -55 -30 -40 -4 -55 -19 -34 -34 9 -7 19
-21 23 -32 4 -12 33 -32 77 -52 39 -18 68 -37 64 -43 -9 -15 -77 -30 -161 -35
-81 -4 -94 -11 -86 -51 3 -19 0 -24 -17 -24 -43 0 -40 89 8 217 16 43 39 111
50 150 12 40 30 81 41 91 10 10 25 35 32 57 15 47 44 63 126 75 35 4 60 14 67
24 13 21 23 20 63 -4z m4109 -157 c-21 -22 -32 -11 -17 17 9 16 15 19 23 11 8
-8 7 -16 -6 -28z m-31 -38 c27 -70 -205 -162 -501 -200 l-40 -5 56 29 c30 15
88 38 128 51 40 12 121 46 180 75 149 73 167 78 177 50z m-1090 -276 c3 -6 2
-15 -4 -21 -11 -11 -52 6 -52 22 0 14 47 13 56 -1z m-3376 -278 c0 -12 -29
-35 -36 -28 -11 10 5 37 21 37 8 0 15 -4 15 -9z"/>
<path d="M3111 12881 l-1 -99 98 0 98 0 3 97 2 96 -100 3 -99 2 -1 -99z m113
73 c3 -8 2 -12 -4 -9 -6 3 -10 10 -10 16 0 14 7 11 14 -7z m-9 -34 c-3 -5 -12
-10 -18 -10 -7 0 -6 4 3 10 19 12 23 12 15 0z m-5 -36 c0 -8 -19 -13 -24 -6
-3 5 1 9 9 9 8 0 15 -2 15 -3z"/>
<path d="M3452 12882 l3 -97 98 -1 97 -1 0 42 c0 22 -6 47 -12 54 -10 11 -10
13 0 7 9 -5 12 5 12 42 l0 48 -100 2 -101 2 3 -98z m132 -28 c3 -8 2 -12 -4
-9 -6 3 -10 10 -10 16 0 14 7 11 14 -7z"/>
<path d="M3790 12899 c0 -53 4 -79 13 -82 10 -4 10 -6 0 -6 -7 -1 -13 -7 -13
-14 0 -10 25 -14 99 -16 l100 -2 -1 99 0 98 -99 0 -99 0 0 -77z m115 -7 c-3
-3 -11 0 -18 7 -9 10 -8 11 6 5 10 -3 15 -9 12 -12z m58 -27 c-3 -9 -8 -14
-10 -11 -3 3 -2 9 2 15 9 16 15 13 8 -4z"/>
<path d="M7868 9358 c13 -13 144 -16 149 -2 2 6 -26 10 -78 11 -53 1 -78 -2
-71 -9z"/>
<path d="M7800 9331 c0 -13 37 -24 51 -15 8 4 7 9 -2 15 -19 12 -49 11 -49 0z"/>
<path d="M8177 9262 c-36 -5 -30 -22 13 -36 29 -9 35 -18 46 -59 15 -59 39
-97 62 -98 13 0 12 -3 -5 -11 -13 -6 -23 -15 -23 -19 0 -17 134 -71 183 -74
27 -1 52 -7 56 -13 13 -22 91 -23 91 -2 0 8 -65 79 -172 188 -71 72 -192 132
-251 124z"/>
<path d="M7982 8798 c-16 -4 -35 -14 -41 -22 -27 -32 39 -98 113 -111 20 -4
36 -11 36 -15 0 -5 7 -15 15 -23 13 -13 23 -13 71 -2 31 7 60 17 65 22 14 14
37 95 32 110 -10 29 -224 58 -291 41z"/>
<path d="M8820 8112 c-64 -5 -84 -12 -71 -25 16 -16 186 -16 202 0 9 9 3 13
-27 18 -63 10 -67 10 -104 7z"/>
<path d="M3525 7439 c-4 -6 -5 -12 -2 -15 7 -7 37 7 37 17 0 13 -27 11 -35 -2z"/>
<path d="M7285 7152 c-50 -4 -75 -12 -75 -22 0 -18 72 -90 121 -122 27 -17 49
-35 49 -39 0 -15 -50 -38 -92 -43 -65 -6 -72 -12 -108 -82 -25 -50 -46 -75
-87 -106 -30 -22 -69 -44 -86 -49 -52 -15 -128 -9 -202 16 -62 20 -85 23 -195
20 -69 -2 -141 -6 -160 -10 -102 -18 -183 -41 -201 -58 -32 -30 -85 -24 -175
21 -87 43 -131 59 -184 66 -105 13 -141 19 -198 32 -34 8 -77 21 -94 30 -28
15 -34 14 -77 -2 -25 -9 -90 -46 -144 -81 -90 -60 -169 -93 -222 -93 -11 0
-46 -13 -78 -29 -45 -23 -65 -27 -86 -21 -55 15 -73 33 -101 93 -15 34 -37 70
-47 79 -26 24 -93 46 -123 41 -68 -10 -214 -98 -320 -193 -19 -18 -47 -36 -62
-42 -18 -6 -38 -28 -54 -59 -20 -35 -41 -57 -78 -79 -28 -16 -76 -52 -106 -80
-30 -27 -71 -55 -90 -61 -19 -6 -46 -18 -59 -26 -17 -11 -38 -14 -75 -9 -59 6
-71 1 -86 -38 -10 -26 -12 -27 -28 -13 -9 8 -33 18 -52 22 -19 4 -46 16 -60
27 -14 10 -42 21 -62 25 -31 4 -43 1 -68 -21 -41 -34 -56 -33 -75 4 -9 17 -13
30 -11 30 3 0 0 14 -5 30 -16 45 -28 36 -18 -13 15 -81 127 -506 164 -622 7
-22 22 -76 34 -120 13 -44 25 -87 28 -95 3 -8 8 -23 9 -32 9 -42 80 -243 122
-343 139 -333 330 -625 617 -944 67 -74 79 -88 119 -131 22 -25 75 -83 116
-130 41 -47 77 -87 80 -90 3 -3 39 -45 80 -95 102 -123 221 -254 375 -412 188
-192 210 -222 218 -297 2 -18 7 -38 11 -44 4 -7 -7 -39 -23 -72 -17 -33 -31
-63 -31 -65 0 -3 12 -2 26 1 22 6 25 4 20 -12 -10 -36 -15 -74 -17 -152 -2
-82 -11 -112 -34 -112 -14 0 -19 -12 -16 -33 1 -4 4 -24 7 -45 3 -20 8 -40 10
-44 3 -4 7 -58 9 -120 7 -182 15 -280 24 -297 13 -25 31 -119 36 -191 13 -197
20 -226 65 -270 22 -22 30 -39 30 -64 0 -25 9 -46 31 -71 30 -34 37 -64 26
-120 -6 -28 11 -45 45 -45 99 0 145 -96 382 -798 124 -369 165 -457 197 -425
4 4 33 58 65 118 128 247 218 382 276 417 18 12 63 50 101 86 77 75 87 100 87
213 0 127 39 217 112 262 18 11 35 23 38 26 17 23 130 105 208 150 91 54 142
96 145 123 2 7 32 43 67 78 36 36 125 153 199 260 115 168 253 355 312 425 63
74 362 444 410 506 81 107 379 574 379 595 0 2 14 27 31 56 170 287 365 662
413 795 28 81 33 117 22 183 -4 25 -10 58 -12 74 -3 17 2 39 12 54 11 16 20
61 25 116 5 49 13 94 19 100 14 14 13 49 -3 70 -12 17 -16 13 -43 -40 -16 -33
-33 -58 -39 -57 -17 3 -17 33 0 60 10 14 19 47 21 71 4 53 18 99 49 162 29 60
34 145 8 157 -31 15 -82 1 -96 -27 -8 -16 -22 -26 -42 -28 -16 -2 -38 -10 -49
-18 -11 -8 -34 -14 -51 -14 -55 0 -168 29 -189 49 -12 10 -39 21 -61 24 -44 7
-88 36 -93 60 -2 9 9 34 23 55 15 22 45 82 67 134 22 51 48 101 59 111 11 10
19 32 20 50 1 40 2 47 33 132 27 76 37 135 41 234 2 82 -3 109 -26 121 -14 8
-25 3 -53 -26 -34 -35 -64 -99 -53 -111 4 -3 12 10 20 28 l15 34 10 -26 c19
-46 -2 -103 -43 -119 -28 -11 -43 5 -39 43 11 109 15 150 20 222 9 119 -20
175 -52 100 -12 -31 -19 -35 -50 -35 -50 0 -63 -36 -61 -162 2 -83 5 -99 21
-111 19 -14 19 -15 -2 -59 -12 -24 -22 -54 -22 -65 0 -12 -11 -43 -24 -70 -13
-26 -27 -69 -31 -95 -7 -44 -35 -107 -114 -254 -3 -6 -22 -32 -41 -58 -45 -61
-91 -146 -119 -223 -13 -34 -32 -70 -43 -80 -24 -22 -48 -66 -48 -89 0 -10
-13 -38 -29 -63 -17 -25 -50 -101 -75 -168 -24 -68 -52 -133 -60 -145 -22 -30
-20 -60 4 -88 11 -13 20 -29 20 -36 0 -7 -9 -18 -20 -24 -15 -8 -20 -21 -20
-50 0 -25 5 -40 13 -41 6 -1 23 -2 36 -2 27 -2 54 -36 42 -55 -4 -7 -25 -13
-47 -15 -33 -2 -39 1 -42 19 -2 14 -14 23 -41 30 -20 6 -43 8 -49 6 -7 -2 -32
-34 -56 -72 -24 -37 -49 -71 -55 -74 -30 -19 21 -28 65 -12 21 8 40 -12 29
-30 -6 -9 -15 -17 -20 -17 -6 1 -23 -10 -38 -23 -16 -13 -39 -24 -52 -24 -16
0 -35 -14 -57 -41 -105 -132 -222 -234 -238 -209 -5 8 -6 18 -4 22 3 5 3 16 0
26 -5 14 -15 17 -51 15 -64 -4 -156 -32 -182 -55 -25 -23 -43 -20 -119 23 -30
17 -71 30 -95 32 -41 3 -154 -15 -189 -30 -36 -15 -155 -27 -264 -27 -66 1
-70 2 -97 35 l-28 34 -1 -29 c0 -27 -1 -28 -37 -21 -21 4 -47 9 -58 10 -26 2
-120 -26 -165 -51 -31 -16 -54 -18 -195 -15 -179 3 -207 9 -365 75 -58 25
-116 47 -130 50 -18 4 -35 22 -56 58 -30 52 -31 53 -78 53 -38 0 -50 4 -59 22
-7 12 -24 31 -39 43 -17 13 -29 34 -33 58 -11 63 -23 80 -75 107 -50 25 -61
39 -37 48 20 7 90 -18 132 -46 22 -15 41 -24 44 -22 11 11 0 75 -20 121 -12
27 -21 53 -20 57 1 5 -14 30 -34 57 -34 46 -47 75 -59 131 -5 22 -13 27 -47
32 -22 3 -43 8 -46 10 -9 10 8 27 27 27 25 0 33 27 19 69 -16 50 -48 83 -72
75 -11 -3 -17 -2 -14 3 5 8 -11 43 -94 203 -16 30 -29 60 -29 65 0 6 18 32 40
59 26 31 40 58 40 76 0 16 5 32 11 35 6 4 47 -17 92 -47 94 -62 128 -78 162
-78 14 0 25 -1 25 -2 11 -74 11 -75 -14 -91 -29 -20 -56 -13 -56 14 0 12 -5
16 -14 13 -27 -10 -27 -36 -1 -62 14 -13 25 -31 25 -38 0 -8 9 -14 19 -14 23
0 29 -15 21 -60 -5 -25 -1 -44 13 -69 11 -18 22 -53 23 -77 2 -30 12 -56 32
-82 16 -20 38 -58 47 -85 15 -40 25 -51 67 -72 51 -26 127 -76 150 -98 46 -46
155 -78 283 -82 61 -2 137 -11 170 -20 55 -15 143 -19 220 -11 159 18 290 41
376 67 36 11 82 19 101 17 23 -1 44 5 63 20 15 12 32 22 36 22 5 0 30 10 55
21 36 17 50 32 71 73 33 67 112 142 158 150 43 8 44 18 6 45 -38 28 -49 26
-62 -6 -10 -27 -11 -27 -25 -9 -8 11 -14 31 -15 45 -1 46 -9 75 -26 93 -15 17
-15 18 5 18 12 0 29 8 39 19 10 10 32 25 48 34 34 17 106 91 180 186 103 131
155 188 236 261 86 78 167 152 249 230 112 107 147 137 178 156 l33 19 29 -35
c16 -19 43 -58 60 -87 l32 -52 -41 -105 c-44 -112 -68 -202 -58 -212 4 -4 14
-1 23 7 8 7 34 15 57 18 34 5 44 12 56 36 7 17 22 39 32 50 10 11 23 42 29 69
6 26 24 68 41 92 37 54 56 98 70 162 10 49 39 97 117 192 84 104 139 218 149
312 6 55 13 72 20 50 9 -23 23 -1 23 37 0 44 -8 55 -27 40 -10 -9 -13 -6 -13
12 0 40 -12 69 -26 69 -29 0 -28 33 2 57 l29 23 -27 0 c-16 0 -29 6 -29 13 -1
6 -2 23 -4 37 -1 14 -2 31 -3 38 -3 18 -102 112 -119 112 -7 0 -22 20 -34 45
-16 34 -35 54 -81 82 -58 36 -79 55 -169 149 -49 51 -154 104 -191 97 -22 -4
-29 0 -43 27 -24 46 -110 128 -142 136 -16 4 -37 15 -48 24 -18 16 -70 34
-170 58 -16 4 -43 6 -60 4z m147 -363 c26 -17 62 -50 80 -73 18 -22 45 -54 61
-71 40 -41 82 -103 100 -147 9 -20 25 -43 36 -50 21 -13 29 -38 12 -38 -15 0
-23 -32 -27 -125 -4 -63 -11 -102 -25 -128 -23 -46 -19 -66 19 -88 16 -9 36
-33 46 -53 16 -34 16 -39 2 -61 -22 -34 -76 -47 -136 -34 -19 4 -66 10 -105
14 -38 3 -77 8 -85 10 -8 2 -35 7 -60 10 -25 2 -56 7 -69 10 -43 8 -333 18
-521 17 -112 0 -226 -6 -290 -16 -105 -16 -129 -19 -230 -31 -30 -3 -71 -10
-90 -15 -81 -20 -198 -28 -655 -45 -159 -6 -215 -12 -280 -30 -27 -8 -70 -17
-95 -20 -25 -3 -56 -9 -70 -14 -14 -5 -58 -19 -99 -31 -107 -32 -208 -76 -243
-105 -35 -29 -50 -31 -69 -8 -17 20 -14 45 14 107 l21 48 -21 18 -22 17 20 41
c26 51 23 115 -5 120 -10 2 -22 -2 -26 -8 -4 -7 -13 -9 -20 -5 -17 10 -7 162
15 233 18 60 70 123 116 143 27 11 45 9 128 -9 53 -12 113 -22 134 -22 27 0
37 -4 37 -16 0 -8 4 -13 9 -9 18 10 21 -13 5 -30 -16 -15 -14 -16 17 -10 28 5
42 1 79 -24 25 -17 53 -31 63 -31 10 0 43 -11 75 -24 36 -15 78 -24 114 -25
117 -1 275 -24 318 -46 14 -7 34 -22 44 -34 37 -41 107 -73 170 -79 133 -13
227 -5 356 30 119 32 112 23 125 188 6 76 33 110 82 104 52 -8 148 -4 203 7
100 20 194 51 215 71 12 12 70 38 128 59 59 21 120 47 136 58 16 12 45 54 66
96 20 41 41 75 46 75 5 0 16 17 24 37 19 45 43 73 63 73 8 0 37 -14 64 -31z
m1168 -1140 c0 -18 -2 -19 -15 -9 -8 7 -15 16 -15 21 0 5 7 9 15 9 9 0 15 -9
15 -21z m-1608 -64 c33 -33 47 -82 43 -157 -3 -68 -9 -76 -83 -110 -70 -32
-89 -32 -117 -2 -14 15 -25 34 -26 43 0 9 -2 24 -4 34 -8 43 26 119 75 168 55
55 76 60 112 24z m-295 -42 c29 -34 62 -137 70 -219 5 -59 5 -61 -25 -83 -40
-28 -136 -61 -178 -61 -23 0 -38 7 -52 25 -21 27 -32 32 -32 14 0 -26 -35 -81
-57 -90 -51 -19 -247 -30 -272 -15 -6 4 -20 24 -31 44 l-19 37 -1 -36 c0 -58
-24 -77 -110 -90 -136 -21 -203 5 -231 88 -9 29 -13 33 -20 20 -5 -9 -12 -35
-15 -59 -3 -24 -13 -49 -22 -56 -17 -13 -51 -7 -67 14 -5 7 -30 15 -55 18 -64
9 -75 24 -77 109 -2 76 18 154 44 174 29 23 138 -60 168 -128 22 -48 37 -40
55 29 42 153 100 194 207 146 45 -19 56 -30 74 -71 47 -104 60 -119 77 -86 5
10 12 45 15 77 8 92 72 165 157 181 47 9 120 -53 120 -104 1 -31 41 -116 55
-116 6 0 23 38 39 84 23 66 40 95 76 133 25 26 55 48 64 48 10 0 29 -12 43
-27z m502 -17 c26 -41 27 -68 4 -89 -31 -27 -59 -26 -97 4 -26 20 -26 22 -11
46 28 42 58 73 71 73 7 0 22 -15 33 -34z m1317 -80 c7 -29 -1 -46 -21 -46 -19
0 -37 34 -29 54 10 25 43 19 50 -8z m-1418 -214 c2 -7 -16 -33 -41 -57 -47
-47 -99 -61 -110 -30 -7 16 -3 20 35 29 15 3 39 22 54 42 27 34 53 41 62 16z
m-177 -132 c-5 -38 -25 -71 -73 -120 -48 -51 -111 -94 -148 -105 -14 -4 -36
-17 -50 -30 -74 -67 -314 -98 -773 -98 -243 -1 -259 0 -285 19 -15 12 -46 24
-68 27 -44 7 -174 64 -187 81 -4 6 -5 19 -3 29 2 9 -3 21 -12 27 -15 8 -15 11
-2 20 17 11 38 12 300 15 227 3 538 14 572 21 93 19 207 22 217 7 3 -6 20 -14
38 -17 24 -6 35 -3 50 12 11 12 36 22 64 24 25 3 61 13 80 22 70 37 235 96
259 93 20 -2 24 -7 21 -27z m-1645 -141 c7 -12 -15 -31 -28 -23 -4 3 -8 12 -8
20 0 17 26 19 36 3z m2555 -926 c-10 -17 -10 -16 -11 3 0 23 13 41 18 25 2 -6
-1 -18 -7 -28z"/>
<path d="M7600 6368 c0 -7 5 -20 10 -28 12 -20 33 0 24 23 -7 20 -34 23 -34 5z"/>
<path d="M8420 6265 c1 -26 2 -28 11 -12 8 14 8 22 0 30 -8 8 -11 3 -11 -18z"/>
<path d="M9407 6183 c-13 -12 -7 -50 9 -63 12 -11 18 -10 31 3 15 14 15 18 -1
41 -17 26 -27 31 -39 19z"/>
<path d="M9735 4063 c3 -15 31 -71 61 -124 30 -53 79 -150 109 -215 65 -141
82 -166 115 -168 24 -1 25 2 28 64 3 63 1 66 -39 115 -22 27 -57 74 -76 105
-20 30 -56 87 -82 125 -72 110 -132 160 -116 98z"/>
<path d="M8159 1613 c-47 -42 -88 -118 -119 -220 l-21 -71 33 -44 c25 -34 51
-54 108 -80 41 -20 86 -39 100 -43 14 -4 39 -17 55 -29 43 -32 99 -56 129 -56
14 0 29 -8 35 -17 7 -13 12 -15 23 -5 20 16 59 21 79 11 9 -5 54 -11 100 -14
91 -7 156 -21 177 -38 10 -8 16 -7 21 2 6 10 25 6 82 -17 41 -17 88 -33 106
-37 35 -7 73 8 73 30 0 7 18 28 40 45 34 27 38 35 30 51 -6 10 -16 19 -23 19
-16 0 -193 91 -340 175 -57 33 -267 162 -357 220 -167 108 -251 155 -274 155
-9 0 -34 -17 -57 -37z"/>
<path d="M4284 995 c-9 -21 14 -45 42 -45 30 0 31 24 2 44 -28 20 -37 20 -44
1z"/>
<path d="M4324 875 c-9 -22 2 -76 24 -120 10 -22 32 -77 48 -123 40 -114 60
-137 118 -137 60 0 57 -4 103 159 5 16 -76 103 -196 210 -26 23 -90 30 -97 11z"/>
<path d="M5198 474 c-21 -9 -38 -20 -38 -25 0 -5 11 -26 24 -47 14 -20 39 -73
56 -116 40 -103 76 -163 102 -172 19 -6 61 25 109 81 9 11 27 31 39 45 52 58
54 66 31 104 -67 108 -226 172 -323 130z"/>
</g>
</svg>
